<svg width="115" height="118" viewBox="0 0 115 118" fill="none" xmlns="http://www.w3.org/2000/svg">
<path d="M53.444 0.749531C44.702 3.9562 42.222 13.0829 47.492 22.7645C49.91 27.1429 57.102 37.5645 57.66 37.5645C58.466 37.5029 65.534 27.0812 67.952 22.3945C70.308 17.9545 70.68 16.5979 70.68 13.4529C70.68 9.01286 69.192 5.8062 65.906 3.09286C62.248 0.0711979 57.722 -0.792135 53.444 0.749531ZM62 3.5862C67.766 5.9912 69.75 12.4045 66.836 19.2495C65.1 23.3812 58.714 32.9395 57.66 32.9395C56.606 32.9395 52.204 26.7112 49.476 21.4695C45.136 13.0829 47.554 4.63453 54.87 3.0312C57.226 2.4762 59.954 2.72286 62 3.5862Z" fill="#001877"/>
<path d="M54.25 4.5112C52.576 5.2512 49.104 8.5812 48.918 9.6912C47.058 19.3729 57.35 25.4779 64.108 18.7562C70.99 11.9729 63.116 0.626202 54.25 4.5112ZM62.372 8.2112C63.922 9.75287 64.48 10.8629 64.48 12.3429C64.48 17.4612 59.644 20.7912 54.994 18.8795C48.298 16.1045 50.468 6.11454 57.784 6.11454C59.768 6.11454 60.698 6.5462 62.372 8.2112Z" fill="#001877"/>
<path d="M26.226 5.92951C22.692 10.3695 21.514 13.4528 21.204 18.8178C20.832 25.9712 23.064 32.1995 27.528 36.2695C29.016 37.6878 29.264 37.7495 30.194 36.8245C31.124 35.8995 31.062 35.6528 29.512 33.8028C23.002 26.1562 22.506 15.3645 28.272 8.64285C30.07 6.60785 30.442 5.74451 30.008 5.00451C28.892 3.33951 28.086 3.52451 26.226 5.92951Z" fill="#001877"/>
<path d="M85.25 4.94286C84.94 5.86786 85.25 6.73119 86.366 7.84119C89.528 11.2329 90.83 14.6862 90.83 19.9895C90.83 24.0595 90.52 25.5395 89.156 28.4379C88.226 30.4112 86.8 32.6929 85.932 33.5562C84.63 34.8512 84.444 35.4062 84.94 36.3929C85.312 37.0095 85.808 37.5645 86.056 37.5645C87.172 37.5645 90.582 33.3095 92.194 29.8562C93.744 26.5879 93.93 25.4162 93.93 20.2979C93.93 13.7612 92.938 10.6779 89.218 6.11453C86.986 3.33952 85.87 3.03119 85.25 4.94286Z" fill="#001877"/>
<path d="M32.426 8.08787C29.388 11.2329 27.9 14.9945 27.9 19.8662C27.9 24.3679 28.83 27.3279 31.372 30.6579C32.86 32.5695 33.046 32.6312 34.1 31.7062C35.216 30.7195 35.154 30.5345 33.294 27.5745C29.698 21.8395 30.442 14.0695 35.03 9.81454C36.208 8.70454 36.394 8.14954 35.898 7.2862C35.092 5.68287 34.658 5.8062 32.426 8.08787Z" fill="#001877"/>
<path d="M79.36 7.03952C78.678 7.84119 78.802 8.27285 80.166 9.69119C85.188 14.9329 85.622 23.9362 81.096 28.7462C79.794 30.1029 79.794 30.1645 80.91 31.3979C81.964 32.5695 82.088 32.5695 83.142 31.6445C83.762 31.0895 85.002 29.2395 85.87 27.5129C87.11 25.0462 87.42 23.4429 87.42 20.0512C87.42 15.0562 86.242 11.9112 83.08 8.39619C80.848 5.86785 80.476 5.68285 79.36 7.03952Z" fill="#001877"/>
<path d="M37.386 11.1712C34.162 14.6862 33.108 18.3862 34.1 22.1479C34.844 24.7995 36.89 27.6979 38.13 27.6979C39.556 27.6979 39.742 25.7862 38.502 24.2445C35.96 21.0379 36.332 16.3512 39.37 13.5145C40.548 12.4045 40.734 11.8495 40.238 10.9862C39.432 9.44454 38.936 9.50621 37.386 11.1712Z" fill="#001877"/>
<path d="M75.082 10.9862C74.586 11.8495 74.648 12.3428 75.392 12.9595C78.43 15.4878 79.112 21.5312 76.57 24.4912C75.206 26.1562 75.144 26.4028 76.012 27.1428C77.252 28.1295 78.616 27.3278 80.228 24.6762C82.398 20.9762 81.344 14.9328 77.934 11.1712C76.384 9.50618 75.888 9.44451 75.082 10.9862Z" fill="#001877"/>
<path d="M10.54 27.6979C8.98999 29.2395 8.92799 30.9045 10.416 32.1995C12.71 34.2962 16.74 32.6929 16.74 29.7329C16.74 28.4995 14.384 26.4645 13.02 26.4645C12.338 26.4645 11.222 27.0195 10.54 27.6979Z" fill="#001877"/>
<path d="M99.82 27.6978C98.27 29.2395 98.208 30.9045 99.696 32.1995C102.982 35.1595 107.384 31.4595 104.718 28.0678C103.23 26.1562 101.494 26.0328 99.82 27.6978Z" fill="#001877"/>
<path d="M18.228 36.6395C17.98 37.1945 18.104 37.9345 18.476 38.3045C19.468 39.2912 21.39 38.6129 21.39 37.2562C21.39 35.6529 18.786 35.1595 18.228 36.6395Z" fill="#001877"/>
<path d="M93.744 37.0712C93.93 38.6129 95.976 39.3529 96.72 38.1195C97.526 36.8862 96.72 35.7145 95.046 35.7145C93.806 35.7145 93.558 35.9612 93.744 37.0712Z" fill="#001877"/>
<path d="M46.81 48.7879C43.214 59.4562 42.346 61.2445 39.184 64.5129C35.96 67.8429 33.232 69.3229 21.886 74.1945L12.462 78.2029L9.176 77.0929C5.456 75.7979 4.96 76.1679 13.764 73.0229C18.352 71.4195 18.476 71.2962 17.918 69.8162C15.81 64.2045 19.964 57.7912 29.76 51.7479C33.17 49.5895 40.3 43.3612 40.3 42.4362C40.3 42.1895 34.1 44.4712 26.536 47.5545C18.91 50.5762 10.354 54.0295 7.44 55.2012C4.526 56.3729 1.674 57.9145 1.116 58.5929C0.124 59.7645 0 61.5529 0 75.3045C0 91.8312 0.31 93.7429 3.224 94.6679C4.03 94.8529 16.306 100.033 30.566 106.076C44.826 112.181 56.978 117.115 57.536 117.115C58.094 117.115 63.364 115.018 69.13 112.49L79.67 107.926L79.856 104.905L80.042 101.945L77.5 101.081C75.268 100.341 74.09 99.2312 75.578 99.2312C75.95 99.2312 82.088 96.7645 89.342 93.6812L102.548 88.1929L104.966 89.2412L107.446 90.2895L96.968 94.7295L86.49 99.1079L86.304 102.191L86.118 105.275L99.324 99.7245C106.578 96.6412 113.088 93.6195 113.77 92.9412C114.948 91.8312 115.01 90.9679 115.01 75.7979C115.01 60.1345 115.01 59.7645 113.646 58.4695C112.344 57.1129 75.02 41.6962 75.02 42.4362C75.02 43.7929 79.732 47.9862 85.064 51.5012C95.418 58.3462 98.952 63.1562 97.526 68.5829C97.154 70.0012 96.906 71.2962 97.03 71.4812C97.154 71.6662 99.758 72.6529 102.858 73.6395C105.958 74.6879 108.5 75.6745 108.5 75.8595C108.5 76.0445 107.074 76.5995 105.338 77.1545C102.238 78.1412 102.176 78.1412 98.084 76.4145C94.922 75.0579 93.806 74.8729 93.496 75.4279C93.248 75.8595 91.946 76.9695 90.644 77.8945C88.908 79.0662 88.288 79.9295 88.474 80.6695C88.846 82.0262 87.916 82.7045 86.552 82.2112C85.622 81.8412 85.622 81.7179 86.614 80.9779C87.234 80.5462 85.374 81.0395 82.46 82.0879C79.546 83.1362 76.756 84.1229 76.26 84.2462C75.33 84.5545 79.422 86.7745 81.158 86.8362C81.654 86.8979 85.932 85.2329 90.768 83.1979C101.06 78.8812 102.424 78.5112 105.586 79.6212L108.004 80.4845L100.936 83.3829C97.092 84.9245 86.862 89.1179 78.182 92.6329L62.496 99.0462L62.372 101.945C62.248 104.35 62.434 104.72 63.24 104.411C68.076 102.315 69.068 102.191 71.548 103.24L73.966 104.288L65.968 107.618C61.566 109.468 57.846 111.071 57.66 111.133C57.474 111.195 52.328 109.098 46.19 106.508C40.052 103.918 34.224 101.451 33.17 101.081L31.31 100.341L33.604 99.1695L35.96 97.9979L45.694 102.068C51.088 104.288 55.862 106.323 56.296 106.446C56.792 106.693 57.04 105.891 57.04 103.795V100.773L45.384 96.0862L33.79 91.3995L33.604 94.0512C33.418 97.0729 33.48 97.0112 31.372 96.0862C30.132 95.4695 29.264 95.5312 27.032 96.3945L24.304 97.4429L15.81 93.8662L7.316 90.3512L9.796 89.2412L12.338 88.1929L17.98 90.6595C21.08 91.9545 23.746 93.0645 23.932 93.0645C24.118 93.0645 24.18 91.7695 24.056 90.1662L23.87 87.2679L15.996 84.1229C11.656 82.3962 7.936 80.8545 7.75 80.6079C7.502 80.4229 8.37 79.9295 9.548 79.4979C11.904 78.7579 14.694 79.0662 17.422 80.4845C18.848 81.1629 19.468 81.1629 21.824 80.2379C23.374 79.6829 24.676 78.9429 24.738 78.6345C24.862 78.3262 24.118 77.5862 23.188 77.0312L21.514 75.9212L23.87 74.9345C25.11 74.3795 26.288 73.9479 26.412 73.9479C26.598 73.9479 28.148 74.9345 29.946 76.0445C33.604 78.5112 40.548 80.9162 46.748 82.0262C51.584 82.8279 52.08 82.5812 52.08 78.6962V76.4145H57.598H63.054L63.488 79.5595L63.922 82.7045L66.526 82.3345C74.648 81.0395 83.762 77.6479 87.668 74.3795L89.528 72.8995L86.614 71.6045C81.84 69.5079 76.508 65.4379 74.152 62.1079C72.726 60.0112 70.866 55.6945 68.758 49.4662L65.596 40.0312H57.66H49.724L46.81 48.7879ZM58.9 43.3612C58.9 44.1629 59.086 45.2729 59.272 45.8279C59.582 46.6295 59.21 46.8145 57.66 46.8145C56.11 46.8145 55.738 46.6295 56.048 45.8279C56.234 45.2729 56.42 44.1629 56.42 43.3612C56.42 42.3129 56.792 41.8812 57.66 41.8812C58.528 41.8812 58.9 42.3129 58.9 43.3612ZM53.94 44.5329C53.94 45.6429 54.25 46.8762 54.684 47.3079C55.304 47.9245 55.242 48.4179 54.436 49.7745C52.948 52.3645 52.576 56.1879 53.692 57.7912C54.56 59.0245 54.498 59.2712 53.258 60.9362C51.212 63.7112 50.592 70.8029 52.328 72.6529C53.258 73.6395 53.258 73.8245 52.018 74.9345C51.274 75.5512 50.282 77.0312 49.786 78.1412C49.166 79.5595 48.608 80.1145 47.864 79.8679C47.306 79.7445 44.826 79.1279 42.47 78.5729C37.944 77.5245 31.558 74.7495 31.186 73.6395C31.062 73.2695 32.054 72.4679 33.294 71.7895C34.596 71.1112 37.2 69.2612 39.184 67.6579C43.214 64.3279 45.446 60.1962 49.29 49.0962C51.15 43.8545 51.832 42.4979 52.762 42.4979C53.692 42.4979 53.94 42.9295 53.94 44.5329ZM63.798 43.2995C64.17 43.7929 65.596 47.4312 66.96 51.4395C68.386 55.4479 69.936 59.5795 70.494 60.6279C72.292 64.2045 75.516 67.5345 79.918 70.4945C82.336 72.0979 84.32 73.5162 84.32 73.6395C84.32 74.3179 77.81 77.0929 73.718 78.2645C67.89 79.8679 66.526 79.8062 65.658 78.0795C65.286 77.3395 64.356 76.1062 63.674 75.3662C62.496 74.0712 62.496 73.9479 63.488 72.4062C64.418 70.9879 64.48 70.1862 63.922 66.6712C63.55 64.3895 62.744 61.8612 62 60.8745C60.884 59.3329 60.822 58.9629 61.566 57.9145C62.62 56.3729 62.31 52.0562 60.946 49.9595C60.202 48.8495 60.14 48.1712 60.698 46.9995C61.07 46.1979 61.38 44.8412 61.38 44.0395C61.38 42.3745 62.682 42.0045 63.798 43.2995ZM25.916 51.3162C22.072 54.1529 21.08 54.5229 20.646 53.2279C20.398 52.5495 24.242 50.6995 26.04 50.5762C26.784 50.5762 26.784 50.6995 25.916 51.3162ZM59.768 52.7962C60.45 57.1129 60.388 57.2979 57.66 57.2979C54.932 57.2979 54.684 56.7429 55.552 52.4262C55.862 50.8229 56.234 50.5145 57.66 50.5145C59.148 50.5145 59.396 50.8229 59.768 52.7962ZM91.946 51.5012C93.93 52.1795 94.674 52.7345 94.426 53.3512C93.992 54.5845 93.496 54.4612 90.83 52.3645C88.102 50.2062 88.164 50.2062 91.946 51.5012ZM18.538 54.2145C19.53 54.7079 19.344 55.0779 16.74 57.7912C14.198 60.3812 13.578 60.7512 11.904 60.5045C10.23 60.2579 10.044 60.0729 10.54 59.0862C11.098 58.0995 16.492 53.5979 17.174 53.5979C17.298 53.5979 17.918 53.8445 18.538 54.2145ZM102.052 56.8045L105.586 60.0729L103.168 60.4429C101.556 60.7512 100.688 60.6279 100.502 60.1345C100.378 59.7645 99.2 58.4079 97.898 57.1745C95.728 55.1395 95.604 54.8312 96.596 54.2762C98.146 53.3512 98.208 53.3512 102.052 56.8045ZM8.494 59.7029C8.308 60.7512 7.626 62.1695 6.882 62.9095C5.27 64.6362 5.146 68.9529 6.572 71.2345C7.564 72.6529 7.502 72.8379 6.448 74.0095C5.518 75.0579 5.456 75.4895 6.076 77.1545C6.572 78.5112 6.572 79.3129 6.138 79.8679C5.332 80.8545 7.254 82.8895 10.602 84.6162L12.71 85.7879L10.54 86.6512C8.06 87.6995 6.2 89.2412 6.2 90.2895C6.2 90.6595 6.758 91.5845 7.44 92.3245C9.176 94.1745 7.688 94.1129 4.898 92.2629L2.79 90.8445L2.604 75.9829L2.48 61.1212L4.402 59.5179C5.456 58.6545 6.82 57.9145 7.502 57.9145C8.556 57.9145 8.68 58.2229 8.494 59.7029ZM110.236 59.1479C111.29 59.8262 112.22 60.6895 112.282 61.1212C112.344 61.5529 112.468 68.2129 112.592 75.9212C112.84 91.2762 112.716 91.8929 108.934 92.8179C107.26 93.1879 107.26 93.1879 107.942 91.5845C108.624 90.1662 108.5 89.7962 107.322 88.5012C106.516 87.6995 105.214 86.8362 104.408 86.6512C102.362 86.0962 102.548 85.3562 105.09 84.1845C107.756 82.8895 109.244 80.9162 108.5 79.5595C108.128 78.8812 108.314 78.2029 108.996 77.4629C109.926 76.4145 109.926 76.1679 108.81 74.2562C107.756 72.2212 107.756 72.0362 108.686 70.9879C110.298 69.2612 110.05 65.3145 108.19 62.8479C106.516 60.6279 106.144 57.9145 107.446 57.9145C107.818 57.9145 109.12 58.4695 110.236 59.1479ZM61.008 63.2795C61.628 66.5479 62.124 70.8645 61.938 71.2345C61.814 71.4812 59.768 71.6662 57.474 71.7279L53.196 71.7895L53.63 68.3979C54.374 61.4295 54.312 61.6145 57.66 61.6145C60.45 61.6145 60.698 61.7379 61.008 63.2795ZM13.02 66.4862C13.02 69.6929 13.144 69.5079 9.238 70.6179C7.936 70.9879 7.316 68.8912 7.874 65.7462C8.184 63.5879 8.308 63.4645 10.602 63.4645H13.02V66.4862ZM107.136 67.2879C107.322 71.1729 107.136 71.3579 103.85 70.0629C102.114 69.3845 101.99 69.0762 101.99 66.3629V63.4029L104.47 63.5879L106.95 63.7729L107.136 67.2879ZM20.956 79.2512C20.708 79.4362 19.778 79.4979 18.786 79.3745L17.05 79.1279L18.6 78.4495C20.026 77.8329 21.762 78.3879 20.956 79.2512ZM97.03 78.8195C97.34 79.0045 96.658 79.3745 95.48 79.6829C94.302 79.9295 92.69 80.3612 91.884 80.5462C89.9 81.0395 90.706 79.2512 92.876 78.5112C94.426 77.8945 95.542 78.0179 97.03 78.8195ZM74.152 98.3062C73.222 99.7245 73.222 99.9095 75.02 101.883C77.934 105.213 77.562 106.138 72.416 108.358C64.852 111.626 63.116 112.243 63.488 111.688C63.674 111.38 64.976 110.64 66.464 110.023C71.672 107.926 73.284 106.94 74.276 105.521C75.144 104.226 75.082 103.98 73.78 102.623C72.974 101.76 71.982 101.081 71.61 101.081C71.238 101.081 70.37 100.711 69.75 100.218C68.634 99.4162 68.758 99.2929 71.052 98.1212C74.462 96.2712 75.454 96.3329 74.152 98.3062ZM30.194 99.2312C29.76 100.835 31.868 103.178 34.782 104.411C38.75 106.138 35.402 105.398 30.566 103.486C22.816 100.465 22.878 100.465 26.102 99.2312C29.822 97.7512 30.566 97.7512 30.194 99.2312Z" fill="#001877"/>
<path d="M44.33 41.1412C43.958 41.3879 43.338 42.3129 42.966 43.2379C41.664 46.1362 37.386 50.2679 31.558 54.2145C24.552 58.9629 22.444 62.2312 22.816 67.5962C22.94 69.4462 23.56 69.3845 28.148 67.1645C35.774 63.5879 38.626 59.9495 44.516 46.3212C46.624 41.5729 46.872 40.6479 46.004 40.6479C45.446 40.6479 44.64 40.8945 44.33 41.1412ZM38.068 54.8929C36.022 58.9012 28.706 65.3145 26.226 65.3145C24.676 65.3145 25.42 63.0329 27.776 60.4429C30.256 57.6679 37.82 52.3029 38.564 52.7345C38.874 52.9195 38.626 53.9062 38.068 54.8929Z" fill="#001877"/>
<path d="M70.804 46.3212C74.896 55.7562 77.5 60.3195 80.352 62.7862C83.39 65.4378 91.326 69.8162 92.008 69.1995C92.194 69.0145 92.38 67.5962 92.38 66.0545C92.38 61.6762 90.396 58.9628 83.7 54.2145C77.252 49.6512 74.772 47.2462 72.292 43.2378C71.3 41.6345 70.184 40.6478 69.502 40.6478C68.386 40.6478 68.51 41.2028 70.804 46.3212ZM81.158 55.2628C83.39 56.8045 85.994 58.7778 86.924 59.6412C88.66 61.2445 90.334 64.5128 89.652 65.1295C88.784 65.9928 84.072 63.0328 80.972 59.7028C78.12 56.6195 75.64 52.3645 76.694 52.3645C76.88 52.3645 78.864 53.6595 81.158 55.2628Z" fill="#001877"/>
<path d="M26.722 82.1495L23.994 83.3212L28.582 85.1095C34.038 87.2062 33.914 87.2062 37.138 85.7879C39.68 84.6162 39.928 83.8145 37.696 83.8145C37.076 83.8145 34.968 83.1979 32.984 82.3962L29.45 80.9779L26.722 82.1495Z" fill="#001877"/>
<path d="M45.88 86.7745L39.556 89.5495L43.462 91.0295C48.112 92.6945 49.414 92.5712 55.49 89.6729C58.962 88.0079 59.52 87.6379 58.156 87.5762C57.226 87.5145 54.622 88.1929 52.328 89.0562C45.446 91.6462 43.338 90.7829 49.29 87.8229C52.266 86.2812 53.01 86.1579 56.234 86.5895C58.218 86.8362 60.636 87.0212 61.628 86.9595C62.558 86.8979 64.976 87.5762 66.898 88.5012C70.37 90.1045 70.37 90.1045 68.572 90.6595C67.58 90.9062 64.79 91.3379 62.372 91.5845C60.016 91.8312 56.73 92.5712 55.18 93.2495L52.39 94.4829L54.87 95.5312C56.916 96.4562 57.66 96.4562 59.21 95.8395C60.264 95.4695 64.232 93.9279 68.014 92.3862C71.858 90.9062 75.02 89.5495 75.02 89.3645C75.02 89.1795 72.478 88.0079 69.44 86.6512C64.418 84.5545 63.24 84.3079 58.032 84.1845C52.39 83.9995 52.08 84.1229 45.88 86.7745Z" fill="#001877"/>
</svg>
